<!-- <?xml version="1.0" encoding="utf-8"?> -->
<!-- Generator: Adobe Illustrator 24.3.0, SVG Export Plug-In . SVG Version: 6.00 Build 0)  -->
<svg version="1.1" id="Layer_1"
    xmlns="http://www.w3.org/2000/svg"
    xmlns:xlink="http://www.w3.org/1999/xlink" x="0px" y="0px" viewBox="0 0 363 764" style="enable-background:new 0 0 363 764;" xml:space="preserve">
    <style type="text/css">
	.st0{fill:#808080;}
	.st1{fill:#999999;}
	.st2{fill:#8C6239;stroke:#FFFF00;stroke-width:12;stroke-miterlimit:10;}
	.st3{fill:#FFFF00;}
    </style>
    <rect y="43" class="st0" width="362" height="398"/>
    <ellipse class="st1" cx="181" cy="43.5" rx="181" ry="43.5"/>
    <polygon class="st1" points="232.11,609 129.89,609 0,440 362,440 "/>
    <path class="st0" d="M46,764c-6.08,0-11-5.49-11-12.27V474h35v277.73c0,6.78-4.92,12.27-11,12.27"/>
    <path class="st1" d="M303,764c-6.08,0-11-5.49-11-12.27V474h35v277.73c0,6.78-4.92,12.27-11,12.27"/>
    <rect x="182" y="43" class="st1" width="181" height="398"/>
    <g>
        <polygon class="st0" points="1.1,440 130.99,609 182,609 182,440 	"/>
    </g>
    <rect x="1" y="43" class="st0" width="181" height="398"/>
    <path class="st0" d="M182,43.5V87C82.71,87,1,67.36,1,43.5S82.71,0,182,0V43.5z"/>
    <path class="st2" d="M182,68c54.12,0,98,43.88,98,98s-43.88,98-98,98s-98-43.88-98-98S127.88,68,182,68"/>
    <path class="st3" d="M182,253.5L182,253.5c-1.38,0-2.5-1.12-2.5-2.5V126c0-1.38,1.12-2.5,2.5-2.5l0,0c1.38,0,2.5,1.12,2.5,2.5v125
	C184.5,252.38,183.38,253.5,182,253.5z"/>
    <path class="st3" d="M182,140.28L182,140.28L182,140.28c-15.62-15.62-15.62-40.95,0-56.57l0,0l0,0
	C197.62,99.34,197.62,124.66,182,140.28z"/>
    <path class="st3" d="M182,169L182,169L182,169c0-22.09,17.91-40,40-40h0v0C222,151.09,204.09,169,182,169z"/>
    <path class="st3" d="M182,169L182,169L182,169c-22.09,0-40-17.91-40-40v0h0C164.09,129,182,146.91,182,169z"/>
    <path class="st3" d="M182,203L182,203L182,203c-22.09,0-40-17.91-40-40v0h0C164.09,163,182,180.91,182,203z"/>
    <path class="st3" d="M182,237L182,237L182,237c-22.09,0-40-17.91-40-40v0h0C164.09,197,182,214.91,182,237z"/>
    <path class="st3" d="M182,203L182,203L182,203c0-22.09,17.91-40,40-40h0v0C222,185.09,204.09,203,182,203z"/>
    <path class="st3" d="M182,237L182,237L182,237c0-22.09,17.91-40,40-40h0v0C222,219.09,204.09,237,182,237z"/>
</svg>
