<!-- <?xml version="1.0" encoding="utf-8"?> -->
<!-- Generator: Adobe Illustrator 24.3.0, SVG Export Plug-In . SVG Version: 6.00 Build 0)  -->
<svg version="1.1" id="Layer_1"
    xmlns="http://www.w3.org/2000/svg"
    xmlns:xlink="http://www.w3.org/1999/xlink" x="0px" y="0px" viewBox="0 0 1366 768" style="enable-background:new 0 0 1366 768;" xml:space="preserve">
    <style type="text/css">
	.st0{fill:#808080;}
	.st1{fill:#999999;}
	.st2{fill:#666666;}
    </style>
    <path class="st0" d="M181,562L181,562c-18.78,0-34-15.22-34-34V270h34V562z"/>
    <polygon class="st0" points="182,178 182,320 40,178 "/>
    <polygon class="st1" points="322.46,181.21 181,179 181,35 362,35 "/>
    <polygon class="st0" points="181,178 38.96,178 0,34 181,34 "/>
    <ellipse class="st2" cx="181" cy="35" rx="181" ry="35"/>
    <polygon class="st1" points="181,178 323,178 181,320 "/>
    <rect x="181" y="270" class="st1" width="34" height="228"/>
    <rect x="181" y="498" class="st0" width="1056" height="64"/>
    <path class="st1" d="M1305,530H209c-15.46,0-28-12.54-28-28v-6h1090C1289.78,496,1305,511.22,1305,530L1305,530z"/>
    <rect x="1241" y="530" class="st1" width="64" height="238"/>
    <path class="st0" d="M1271,768h-34V530l0,0c18.78,0,34,15.22,34,34V768z"/>
</svg>
