<!-- <?xml version="1.0" encoding="utf-8"?> -->
<!-- Generator: Adobe Illustrator 24.3.0, SVG Export Plug-In . SVG Version: 6.00 Build 0)  -->
<svg version="1.1" id="Layer_1"
    xmlns="http://www.w3.org/2000/svg"
    xmlns:xlink="http://www.w3.org/1999/xlink" x="0px" y="0px" viewBox="0 0 1366 519" style="enable-background:new 0 0 1366 519;" xml:space="preserve">
    <style type="text/css">
	.st0{fill:#808080;}
	.st1{fill:#999999;}
    </style>
    <g>
        <path class="st0" d="M34,293h-9c-13.81,0-25-11.19-25-25V0h34V293z"/>
    </g>
    <g>
        <path class="st1" d="M68,260h-9c-13.81,0-25-11.19-25-25V0h34V260z"/>
    </g>
    <path class="st0" d="M1298,293H25c-13.81,0-25-11.19-25-25v-42h1298V293z"/>
    <path class="st1" d="M1366,260H59c-13.81,0-25-11.19-25-25v-9h1307c13.81,0,25,11.19,25,25V260z"/>
    <g>
        <path class="st1" d="M1366,519h-68V226h43c13.81,0,25,11.19,25,25V519z"/>
    </g>
    <g>
        <path class="st0" d="M1332,519h-34V260h9c13.81,0,25,11.19,25,25V519z"/>
    </g>
</svg>
