<!-- <?xml version="1.0" encoding="utf-8"?> -->
<!-- Generator: Adobe Illustrator 24.3.0, SVG Export Plug-In . SVG Version: 6.00 Build 0)  -->
<svg version="1.1" id="Layer_1"
    xmlns="http://www.w3.org/2000/svg"
    xmlns:xlink="http://www.w3.org/1999/xlink" x="0px" y="0px" viewBox="0 0 363 650" style="enable-background:new 0 0 363 650;" xml:space="preserve">
    <style type="text/css">
	.st0{fill:#808080;}
	.st1{fill:#999999;}
	.st2{fill:#B3B3B3;}
	.st3{fill:#666666;}
	.st4{opacity:0.4;fill:#FFFFFF;}
	.st5{fill:#FCEE21;}
    </style>
    <rect x="1" y="128" class="st0" width="362" height="300"/>
    <rect x="182" y="128" class="st1" width="181" height="300"/>
    <ellipse class="st2" cx="181" cy="130.5" rx="181" ry="43.5"/>
    <polygon class="st1" points="232.11,597 129.89,597 0,428 362,428 "/>
    <path class="st0" d="M74,650c6.08,0,11-3.03,11-6.77V490H50v153.23c0,3.74,4.92,6.77,11,6.77"/>
    <path class="st1" d="M302,650c6.08,0,11-3.03,11-6.77V490h-35v153.23c0,3.74,4.92,6.77,11,6.77"/>
    <g>
        <polygon class="st0" points="1.1,428 130.99,597 182,597 182,428 	"/>
    </g>
    <rect x="1" y="128" class="st0" width="181" height="300"/>
    <path class="st1" d="M182,130v43.5C82.71,173.5,1,153.86,1,130s81.71-43.5,181-43.5V130z"/>
    <polygon class="st1" points="232.37,128 130.15,128 0.26,15.33 362.26,15.33 "/>
    <g>
        <polygon class="st0" points="0.84,15.33 130.73,128 181.74,128 181.74,15.33 	"/>
    </g>
    <ellipse class="st3" cx="181" cy="15.33" rx="181" ry="15.33"/>
    <path class="st4" d="M272.4,469H90.6C68.18,469,50,450.82,50,428.4V239.6c0-22.42,18.18-40.6,40.6-40.6h181.8
	c22.42,0,40.6,18.18,40.6,40.6v188.8C313,450.82,294.82,469,272.4,469z"/>
    <path class="st5" d="M272.4,469H90.6C68.18,469,50,450.82,50,428.4V410h263v18.4C313,450.82,294.82,469,272.4,469z"/>
</svg>
